# xmcd
#
# Track frame offsets: 
#        150
#        15996
#        21977
#        38865
#        56146
#        68720
#        83625
#        92805
#        103118
#        114961
#
# Disc length: 1709 seconds
#
# Revision: 1
# Processed by: cddbd v1.5.2PL0 Copyright (c) Steve Scherf et al.
# Submitted via: ExactAudioCopy v1.3
#
DISCID=7606ab0a
DTITLE=Eric Clapton - Lonely Years
DYEAR=2003
DGENRE=Rock
TTITLE0=Louise
TTITLE1=Chockler
TTITLE2=They Call It Stormy Monday
TTITLE3=Early In The Morning
TTITLE4=Good Morning Little School Girl
TTITLE5=Lonely Years
TTITLE6=I Ain't Got You
TTITLE7=I Wish You Would
TTITLE8=Got The Hurry
TTITLE9=Too Much Monkey Business
EXTD=
EXTT0=
EXTT1=
EXTT2=
EXTT3=
EXTT4=
EXTT5=
EXTT6=
EXTT7=
EXTT8=
EXTT9=
PLAYORDER=
